#!OML:ASF F:\VICON\USERDATA\INSTALL\rory3\rory3.ASF
:FULLY-SPECIFIED
:DEGREES
242
root 4.2966 17.1056 2.74704 19.0139 -6.18762 -7.17615
lowerback -3.97795 0.228681 6.75572
upperback -5.16969 0.216872 1.71334
thorax -3.11254 -0.0956534 -2.00507
lowerneck -10.6771 3.28498 -0.999986
upperneck 35.699 3.71098 3.79306
head 13.7715 1.945 2.2275
rclavicle -1.0461e-014 -2.34566e-014
rhumerus -7.33193 1.0732 -8.79094
rradius 103.346
rwrist -34.7247
rhand -4.84449 -40.457
rfingers 7.12502
rthumb 20.9428 -69.3464
lclavicle -1.0461e-014 -2.34566e-014
lhumerus 15.147 6.63117 -4.12815
lradius 29.0398
lwrist 19.2504
lhand -23.0557 -27.0902
lfingers 7.12502
lthumb 3.38928 2.86259
rfemur -15.2217 3.33547 5.37949
rtibia 33.4834
rfoot 13.7285 -19.2538
rtoes -25.2084
lfemur -37.7274 -1.05804 -20.0841
ltibia 40.4471
lfoot -19.4163 5.18895
ltoes 15.8851
243
root 4.30196 17.0987 2.74516 18.9138 -6.09804 -7.31416
lowerback -3.89354 0.183455 6.83564
upperback -5.17859 0.164554 1.77733
thorax -3.17469 -0.125321 -1.98383
lowerneck -10.2868 3.2764 -0.964097
upperneck 35.6577 3.71532 3.70243
head 13.6697 1.93949 2.17248
rclavicle 1.758e-014 -3.02153e-014
rhumerus -7.49521 1.70059 -9.03333
rradius 103.266
rwrist -34.9969
rhand -6.76146 -42.6448
rfingers 7.12502
rthumb 19.1002 -71.727
lclavicle 1.758e-014 -3.02153e-014
lhumerus 15.0763 6.82087 -3.72012
lradius 28.7389
lwrist 18.1111
lhand -22.5976 -27.1485
lfingers 7.12502
lthumb 3.83167 2.79679
rfemur -15.276 3.37812 5.54394
rtibia 33.7528
rfoot 13.6153 -19.3562
rtoes -25.179
lfemur -37.7197 -1.08278 -19.9311
ltibia 40.5958
lfoot -19.4367 5.18249
ltoes 15.2196
244
root 4.30545 17.0933 2.74 18.7932 -6.16516 -7.36663
lowerback -3.64385 0.17893 6.7645
upperback -5.22872 0.185346 1.80889
thorax -3.36537 -0.118346 -1.91116
lowerneck -10.0535 3.22235 -1.19368
upperneck 35.795 3.60337 3.94226
head 13.6697 1.8893 2.29093
rclavicle 1.61761e-014 7.15625e-015
rhumerus -7.54397 2.01779 -9.34083
rradius 102.796
rwrist -34.4191
rhand -8.02998 -44.3503
rfingers 7.12502
rthumb 17.88 -73.5484
lclavicle 1.61761e-014 7.15625e-015
lhumerus 14.8083 6.12304 -3.6764
lradius 28.9301
lwrist 18.5215
lhand -22.6574 -27.1911
lfingers 7.12502
lthumb 3.7739 2.7552
rfemur -15.3897 3.54633 5.57409
rtibia 34.0122
rfoot 14.1701 -19.1047
rtoes -26.1326
lfemur -37.7152 -1.03982 -19.8837
ltibia 40.7252
lfoot -19.5142 5.28491
ltoes 14.5704
245
root 4.31191 17.0895 2.74248 18.6701 -6.2597 -7.38725
lowerback -3.42966 0.199935 6.70095
upperback -5.21562 0.232081 1.78362
thorax -3.46764 -0.0957734 -1.90194
lowerneck -10.0287 3.13013 -1.37333
upperneck 35.9168 3.428 4.17196
head 13.7141 1.81692 2.39396
rclavicle 3.54706e-014 -4.11484e-014
rhumerus -7.68655 2.40607 -9.72042
rradius 102.499
rwrist -34.4533
rhand -7.20774 -42.2819
rfingers 7.12502
rthumb 18.671 -71.4058
lclavicle 3.54706e-014 -4.11484e-014
lhumerus 14.7198 5.81956 -3.47467
lradius 28.929
lwrist 18.7093
lhand -22.5717 -27.6826
lfingers 7.12502
lthumb 3.85667 2.26223
rfemur -15.4855 3.69383 5.53958
rtibia 34.303
rfoot 14.8578 -18.5547
rtoes -27.2214
lfemur -37.6511 -0.999876 -19.9008
ltibia 40.8402
lfoot -19.5989 5.52008
ltoes 13.1659
246
root 4.32179 17.0843 2.7523 18.621 -6.26393 -7.52779
lowerback -3.41266 0.209396 6.83078
upperback -5.11849 0.239756 1.77983
thorax -3.37567 -0.0919075 -1.97854
lowerneck -10.182 3.0486 -1.1866
upperneck 35.9636 3.34514 3.93097
head 13.7847 1.77299 2.25947
rclavicle -8.93289e-015 -1.31198e-014
rhumerus -7.75512 2.50068 -10.0892
rradius 101.981
rwrist -33.5645
rhand -4.68371 -39.7666
rfingers 7.12502
rthumb 21.0973 -68.6389
lclavicle -8.93289e-015 -1.31198e-014
lhumerus 14.7514 6.0445 -3.04947
lradius 28.7652
lwrist 18.4113
lhand -22.9797 -27.3339
lfingers 7.12502
lthumb 3.46275 2.61776
rfemur -15.6168 3.6837 5.63836
rtibia 34.679
rfoot 15.0217 -18.2289
rtoes -27.6196
lfemur -37.5779 -0.98102 -19.7968
ltibia 40.9478
lfoot -19.6932 5.50164
ltoes 13.2032
247
root 4.32848 17.0766 2.75472 18.6228 -6.31212 -7.60403
lowerback -3.45416 0.243027 6.87048
upperback -5.04512 0.276618 1.77998
thorax -3.27244 -0.0702318 -2.00057
lowerneck -10.1796 2.97677 -1.01602
upperneck 35.9378 3.29795 3.63957
head 13.7869 1.73687 2.10522
rclavicle -1.00883e-014 3.99557e-014
rhumerus -7.87326 2.71516 -10.3416
rradius 101.596
rwrist -32.7838
rhand -5.42321 -40.2923
rfingers 7.12502
rthumb 20.3867 -69.2421
lclavicle -1.00883e-014 3.99557e-014
lhumerus 14.7959 6.01456 -2.6897
lradius 28.6617
lwrist 18.2588
lhand -23.6719 -26.4775
lfingers 7.12502
lthumb 2.79423 3.48389
rfemur -15.8319 3.64202 5.65635
rtibia 35.0145
rfoot 15.1974 -18.018
rtoes -27.8505
lfemur -37.6102 -0.902905 -19.7658
ltibia 41.0844
lfoot -19.8746 5.22729
ltoes 15.2045
248
root 4.32909 17.0709 2.73975 18.5789 -6.50674 -7.49035
lowerback -3.15652 0.287333 6.60399
upperback -5.11424 0.367475 1.73202
thorax -3.50288 -0.024374 -1.90214
lowerneck -10.3605 2.94102 -0.743025
upperneck 36.3435 3.27091 3.36673
head 14.0284 1.72106 1.96278
rclavicle -2.54444e-014 -9.93923e-016
rhumerus -8.1853 3.09836 -10.5547
rradius 101.34
rwrist -31.9048
rhand -7.92718 -41.7619
rfingers 7.12502
rthumb 17.9789 -70.9509
lclavicle -2.54444e-014 -9.93923e-016
lhumerus 14.7234 5.38723 -2.59865
lradius 28.7261
lwrist 18.5407
lhand -23.9933 -26.2474
lfingers 7.12502
lthumb 2.48386 3.71792
rfemur -16.1646 3.79072 5.45299
rtibia 35.3452
rfoot 15.6192 -17.7956
rtoes -28.0331
lfemur -37.6908 -0.773884 -19.934
ltibia 41.2182
lfoot -19.955 5.11877
ltoes 16.4615
